<svg width="498.67" height="497.82" viewBox="0 0 498.67 497.82" xmlns="http://www.w3.org/2000/svg" xmlns:xlink="http://www.w3.org/1999/xlink" overflow="hidden"><style>
.MsftOfcThm_Background1_Fill_v2 {
 fill:#FFFFFF; 
}
</style>
<defs></defs><g><path d="M92.06 400.75C80.97 400.75 70.67 400.86 60.37 400.72 50.23 400.58 39.91 401.26 29.99 399.63 12.68 396.79 0.07 380.86 0.05 363.37-0.02 298.54-0.04 233.7 0.06 168.87 0.09 148.36 16.99 131.81 37.99 131.67 64.16 131.49 90.34 131.59 116.51 131.59 228.37 131.59 340.23 131.56 452.09 131.68 458.85 131.69 465.92 131.89 472.29 133.85 488.04 138.68 498.55 153.8 498.58 170.8 498.69 234.63 498.72 298.47 498.57 362.3 498.52 384.37 481.73 400.72 459.79 400.75 443.79 400.77 427.78 400.75 411.78 400.75 410.15 400.75 408.52 400.75 406.59 400.75 406.59 378.36 406.59 356.45 406.59 333.68 412.34 333.68 417.95 333.89 423.53 333.64 434.73 333.12 441.49 322.81 436.84 313.44 433.94 307.6 429 305.34 422.53 305.36 396.69 305.47 370.85 305.39 345.02 305.39 256 305.39 166.97 305.39 77.95 305.44 75.15 305.44 72.2 305.5 69.59 306.35 63.46 308.34 60.03 314.23 60.58 320.86 61.09 327.04 65.54 332.31 71.85 333.09 77.28 333.76 82.83 333.34 88.29 333.85 89.64 333.98 91.92 335.87 91.93 336.97 92.12 357.96 92.06 378.94 92.06 400.75ZM428.75 244.87C428.8 252.49 435.15 258.9 442.68 258.93 450.26 258.97 457.11 252.09 457.02 244.55 456.93 237.03 450.48 230.68 442.88 230.64 434.93 230.6 428.69 236.88 428.75 244.87ZM428.75 186.7C428.79 194.35 435.12 200.78 442.64 200.81 450.3 200.83 457.02 194.12 457 186.46 456.98 178.95 450.55 172.61 442.9 172.56 434.85 172.51 428.7 178.65 428.75 186.7Z" class="MsftOfcThm_Background1_Fill_v2" fill="#FFFFFF"/><path d="M99.03 110.04C99.03 95.55 99.03 81.92 99.03 68.29 99.03 50.79 99.03 33.3 99.06 15.8 99.07 5.24 104.19 0.01 114.58 0.01 204.09 0 293.6 0 383.11 0.01 392.64 0.01 397.98 5.28 398 14.82 398.06 44.81 397.96 74.81 398.13 104.8 398.15 108.96 396.94 110.15 392.78 110.15 312.11 110.03 231.43 110.06 150.76 110.05 135.76 110.05 120.76 110.05 105.76 110.05 103.77 110.04 101.79 110.04 99.03 110.04Z" class="MsftOfcThm_Background1_Fill_v2" fill="#FFFFFF"/><path d="M120.13 497.51C120.13 442.91 120.13 388.81 120.13 334.15 121.84 334 123.42 333.73 125.01 333.73 207.33 333.7 289.66 333.71 371.98 333.6 376.09 333.59 377.43 334.84 377.42 338.99 377.31 390.14 377.34 441.29 377.39 492.44 377.39 495.87 377.07 497.83 372.62 497.82 289.79 497.68 206.97 497.72 124.14 497.71 123 497.71 121.86 497.6 120.13 497.51ZM248.6 428.6C221.76 428.6 194.92 428.55 168.08 428.63 160.23 428.66 154.25 434.37 153.79 441.81 153.33 449.13 158.79 455.6 166.45 456.7 168.09 456.94 169.78 456.88 171.44 456.88 199.95 456.9 228.45 456.91 256.96 456.91 280.8 456.91 304.64 456.94 328.47 456.84 336.98 456.8 342.61 451.85 343.2 444.32 343.92 435.17 338 428.64 328.62 428.61 301.94 428.55 275.27 428.6 248.6 428.6ZM249.08 367.66C222.41 367.66 195.73 367.71 169.06 367.62 162.75 367.6 158.04 370.06 155.26 375.68 150.49 385.29 157.58 395.86 168.95 395.93 190.29 396.06 211.63 395.98 232.97 395.98 264.64 395.98 296.32 396.01 327.99 395.96 336.92 395.95 342.58 391.16 343.2 383.42 343.93 374.32 337.9 367.71 328.6 367.69 302.09 367.63 275.58 367.67 249.08 367.66Z" class="MsftOfcThm_Background1_Fill_v2" fill="#FFFFFF"/></g></svg>