<svg width="466.26" height="467.76" viewBox="0 0 466.26 467.76" xmlns="http://www.w3.org/2000/svg" xmlns:xlink="http://www.w3.org/1999/xlink" overflow="hidden"><style>
.MsftOfcThm_Background1_Fill_v2 {
 fill:#FFFFFF; 
}
</style>
<defs></defs><g><path d="M294.43 8.8C288.7 25.24 282.98 41.65 277.45 57.51 265.05 56.05 253.24 53.97 241.35 53.38 194.69 51.06 153.36 65.34 117.69 95.3 83.01 124.43 62 161.78 55.27 206.49 40.24 306.33 108.44 396.35 203.27 411.97 302.06 428.24 393.38 362.67 410.47 263.75 414.46 240.64 413.86 217.66 408.71 194.81 407.83 190.91 408.32 189.01 412.61 187.62 427.62 182.78 442.47 177.42 457.38 172.25 479.7 244.6 463.17 354.57 370.76 422.04 277.24 490.32 153.98 481.17 70.57 401.1-9.82 323.93-23.39 198.29 39.43 104.08 103.91 7.38 215.87-15.07 294.43 8.8Z" class="MsftOfcThm_Background1_Fill_v2" fill="#FFFFFF"/><path d="M377.18 200.25C392.4 264.71 362.52 334.62 299.72 366.71 238.62 397.92 164.09 382.48 119.55 329.24 75.28 276.34 73.52 198.56 115.22 143.72 158.2 87.18 225.6 77.45 266.24 89.32 265.25 92.27 264.28 95.22 263.26 98.16 259.12 110.1 254.81 121.99 250.92 134.01 249.64 137.97 247.74 139 243.72 138.56 211 134.99 183.44 145.88 162.08 170.48 138.59 197.54 131.78 229.17 143 263.31 154.58 298.55 179.24 320.77 215.8 327.94 270.03 338.57 321.89 299.42 327.34 244.37 328.07 236.98 327.59 229.43 327.23 221.97 327.07 218.63 327.71 216.98 331.14 215.85 345.2 211.24 359.14 206.26 373.13 201.44 374.35 201.01 375.62 200.7 377.18 200.25Z" class="MsftOfcThm_Background1_Fill_v2" fill="#FFFFFF"/><path d="M441.61 143.88C381.1 164.81 320.6 185.74 259.04 207.04 280.35 145.97 301.29 85.94 322.24 25.91 322.57 25.89 322.9 25.87 323.23 25.85 324.11 30.71 325.05 35.57 325.85 40.45 329.91 65.06 333.92 89.68 338 114.29 339.33 122.31 344.09 127.13 352.55 128.57 371.57 131.79 390.62 134.8 409.66 137.89 420.26 139.61 430.87 141.35 441.47 143.08 441.51 143.35 441.56 143.61 441.61 143.88Z" class="MsftOfcThm_Background1_Fill_v2" fill="#FFFFFF"/><path d="M238.01 170.21C231.51 188.94 225.06 207.25 218.85 225.65 217.82 228.7 217.03 232.24 217.53 235.33 219.21 245.88 228.84 251.24 239.34 247.67 256.02 242.01 272.62 236.13 289.26 230.37 291.28 229.67 293.33 229.08 295.41 228.43 300.51 260.84 272.61 294.93 239.18 297.56 200.98 300.57 169.63 271.24 170.11 232.94 170.57 195.94 201.94 166.62 238.01 170.21Z" class="MsftOfcThm_Background1_Fill_v2" fill="#FFFFFF"/></g></svg>