<svg width="281.39" height="255.45" viewBox="0 0 281.39 255.45" xmlns="http://www.w3.org/2000/svg" xmlns:xlink="http://www.w3.org/1999/xlink" overflow="hidden"><style>
.MsftOfcThm_Background1_Fill_v2 {
 fill:#FFFFFF; 
}
</style>
<defs></defs><g><path d="M51.11 127.62C59.63 127.62 67.77 127.62 76.66 127.62 63.73 144.84 51.15 161.59 38.27 178.74 25.49 161.73 12.88 144.95 0 127.82 1.16 127.74 1.93 127.65 2.7 127.65 9.36 127.64 16.02 127.57 22.67 127.69 24.76 127.73 25.51 127.28 25.58 124.99 26.58 88.63 40.49 58.02 67.19 33.37 85.5 16.47 107.09 5.92 131.71 1.81 189.87-7.89 245.7 21.64 270.19 75.18 279.63 95.82 282.87 117.56 280.79 140.16 276.1 190.96 240.5 234.69 191.92 249.29 149.29 262.11 109.84 254.82 74.25 227.86 70.48 225.01 67 221.75 63.58 218.47 58 213.11 57.76 205.2 62.84 199.99 67.86 194.84 75.69 194.74 81.17 200.03 91.98 210.46 104.29 218.41 118.42 223.59 175.85 244.62 239.2 210.45 253.12 150.9 265.84 96.51 232.51 42 178.22 28.44 123.66 14.8 67.94 48.03 54.24 102.67 52.4 110.03 52.11 117.78 51.12 125.35 51.04 125.98 51.11 126.64 51.11 127.62Z" class="MsftOfcThm_Background1_Fill_v2" fill="#FFFFFF"/><path d="M153.45 127.65C164.48 127.65 175.04 127.65 185.6 127.65 187.6 127.65 189.6 127.63 191.59 127.65 198.92 127.72 204.55 133.19 204.62 140.31 204.69 147.48 199.04 153.15 191.54 153.19 179.22 153.26 166.91 153.21 154.59 153.21 150.1 153.21 145.6 153.26 141.11 153.19 133.14 153.06 127.84 147.75 127.83 139.74 127.79 114.62 127.79 89.49 127.83 64.37 127.84 56.7 133.5 50.95 140.73 51.03 148.05 51.11 153.43 56.75 153.45 64.51 153.48 84.39 153.46 104.28 153.46 124.16 153.45 125.22 153.45 126.29 153.45 127.65Z" class="MsftOfcThm_Background1_Fill_v2" fill="#FFFFFF"/></g></svg>