<svg width="512" height="512" viewBox="0 0 512 512" xmlns="http://www.w3.org/2000/svg" xmlns:xlink="http://www.w3.org/1999/xlink" overflow="hidden"><style>
.MsftOfcThm_Background1_Fill_v2 {
 fill:#FFFFFF; 
}
</style>
<defs></defs><g><path d="M154 512C152.5 511.39 151.01 510.73 149.49 510.19 136.73 505.69 128.13 494.08 128.05 480.59 127.91 458.93 127.89 437.27 128.05 415.61 128.18 397.97 142.52 383.98 160.08 384.01 177.61 384.04 191.78 398.06 191.99 415.75 192.11 426.24 192.01 436.73 192.01 447.61 277.24 447.61 362.28 447.61 447.66 447.61 447.66 320.03 447.66 192.33 447.66 64.32 362.63 64.32 277.59 64.32 192 64.32 192 75.21 192.13 85.99 191.97 96.76 191.74 111.87 181.14 124.26 166.03 127.4 151.87 130.34 136.91 122.92 131.13 109.38 129.23 104.92 128.22 99.76 128.15 94.9 127.83 74.41 127.99 53.91 128.02 33.42 128.04 17.1 136.62 5.72 152.36 0.94 152.95 0.76 153.47 0.33 154.02 0.01 264.69 0.01 375.35 0.01 486.02 0.01 490.03 1.87 494.26 3.37 498.01 5.65 505.62 10.27 509.22 17.91 512 26 512 179.33 512 332.67 512 486 510.14 490.01 508.64 494.24 506.36 497.99 501.73 505.62 494.09 509.22 486 512 375.33 512 264.67 512 154 512Z" class="MsftOfcThm_Background1_Fill_v2" stroke-width="0.998915" fill="#FFFFFF"/><path d="M0 250C0.31 249.45 0.75 248.93 0.93 248.34 5.78 232.42 17.14 224.01 33.92 224 111.91 223.99 189.9 224 267.88 224 269.68 224 271.49 224 274.33 224 272.58 222.08 271.47 220.78 270.27 219.57 257.91 207.18 245.42 194.92 233.2 182.4 223.65 172.62 221.44 158.93 226.96 146.8 232.34 134.97 244.41 127.49 257.45 128.09 265.59 128.47 272.71 131.5 278.49 137.26 310.58 169.28 342.7 201.26 374.62 233.44 387.47 246.39 387.36 265.77 374.45 278.76 342.86 310.56 311.16 342.26 279.36 373.85 265.79 387.33 246.05 387.47 233.28 374.62 220.5 361.76 220.82 342.19 234.25 328.52 246.04 316.51 258.01 304.68 269.95 292.82 271.23 291.55 272.87 290.65 274.35 289.57 274.09 289.05 273.83 288.52 273.57 288 271.68 288 269.78 288 267.89 288 190.4 288 112.91 288 35.43 288 16.69 288 6.66 280.69 0.67 262.7 0.58 262.42 0.24 262.23 0.01 262 0 258 0 254 0 250Z" class="MsftOfcThm_Background1_Fill_v2" stroke-width="0.998915" fill="#FFFFFF"/></g></svg>