<svg viewBox="0 0 108.6 108.6" xmlns="http://www.w3.org/2000/svg" xmlns:xlink="http://www.w3.org/1999/xlink" id="Layer_1" overflow="hidden"><defs></defs><path d="M94.61 108.6 13.99 108.6C6.26 108.6 0 102.34 0 94.61L0 13.99C0 6.27 6.27 0 13.99 0L94.61 0C102.34 0 108.6 6.27 108.6 13.99L108.6 94.61C108.6 102.34 102.33 108.6 94.61 108.6"/><path d="M29.31 26.2 37.9 26.2 45.14 35.85C48.42 40.22 51.7 44.6 54.98 48.97 56.06 47.82 57.14 46.68 58.21 45.52 52.22 37.53 46.22 29.54 40.23 21.54L20.09 21.54C25.76 29.24 31.43 36.94 37.09 44.64 40.31 49 43.52 53.37 46.74 57.73 47.82 56.58 48.9 55.43 49.98 54.28L29.31 26.2ZM83.39 79.09C75.97 69.21 68.55 59.32 61.14 49.43 60.06 50.58 58.98 51.72 57.9 52.88 65.15 62.55 72.41 72.23 79.66 81.89 79.79 82.07 79.93 82.24 80.06 82.42L70.69 82.42 52.88 58.23C51.8 59.38 50.71 60.54 49.63 61.69 53.91 67.49 58.18 73.3 62.45 79.1 64.41 81.76 66.37 84.42 68.33 87.08L89.36 87.08C87.36 84.42 85.36 81.76 83.37 79.1" fill="#FFFFFF"/><path d="M52.88 58.21C51.8 59.36 50.71 60.52 49.63 61.67 44.18 67.47 38.73 73.28 33.29 79.08 30.79 81.74 28.3 84.4 25.8 87.06L19.23 87.06C21.72 84.4 24.22 81.74 26.72 79.08 30.19 75.38 33.66 71.68 37.13 67.98 40.34 64.56 43.54 61.15 46.75 57.73 47.83 56.58 48.91 55.43 49.99 54.28L52.89 58.21Z" fill="#FFFFFF"/><path d="M87.3 21.54C78.58 30.83 69.86 40.13 61.14 49.42 60.06 50.57 58.98 51.71 57.9 52.87 56.93 51.57 55.95 50.27 54.97 48.97 56.05 47.82 57.13 46.68 58.2 45.52 65.7 37.53 73.19 29.53 80.69 21.54L87.3 21.54Z" fill="#FFFFFF"/></svg>