<svg width="238.7" height="31.3" viewBox="0 0 238.7 31.3" xmlns="http://www.w3.org/2000/svg" xmlns:xlink="http://www.w3.org/1999/xlink" overflow="visible"><defs></defs><g><g><defs><rect x="103.4" y="0.5" width="30.7" height="30.8" id="SVGID_1_"/></defs><clipPath id="SVGID_2_"><use width="100%" height="100%" xlink:href="#SVGID_1_" overflow="visible"></use></clipPath><path d="M168.7 12.8 168.7 19C168.7 19.1 168.7 19.1 168.7 19.2 168.7 20 168.7 20.7 168.7 21.5 168.7 22.2 168.6 22.9 168.6 23.6 168.5 24.4 168.3 25.2 168 26 167.3 27.9 165.9 29.3 164.1 30.3 163 30.9 161.7 31.1 160.5 31.2 159.9 31.2 159.4 31.3 158.8 31.3 158.1 31.3 157.5 31.3 156.8 31.3 156.8 31.3 156.7 31.3 156.7 31.3L150.5 31.3C150.5 31.3 150.4 31.3 150.4 31.3 149.6 31.3 148.7 31.3 147.9 31.2 147.3 31.2 146.6 31.1 146 31.1 145.3 31 144.6 30.8 143.9 30.6 141.7 29.8 140.1 28.3 139.2 26.1 138.8 25.1 138.6 24 138.5 22.9 138.5 22.2 138.4 21.5 138.4 20.8 138.4 20.3 138.4 11.3 138.4 10.5 138.4 9.9 138.5 9.3 138.5 8.7 138.6 8 138.7 7.4 138.9 6.7 139.4 5.1 140.3 3.7 141.6 2.6 142.8 1.6 144.3 1.1 145.8 0.9 146.2 0.8 146.7 0.8 147.1 0.8 147.8 0.8 148.5 0.7 149.1 0.7 149.5 0.7 149.9 0.7 150.3 0.7 150.3 0.7 150.4 0.7 150.4 0.7L156.6 0.7C156.6 0.7 156.7 0.7 156.7 0.7 157.6 0.7 158.5 0.7 159.5 0.8 160.1 0.8 160.7 0.9 161.3 0.9 162 1 162.7 1.2 163.4 1.4 165.7 2.2 167.2 3.8 168.1 6 168.5 7 168.7 8 168.7 9.1 168.7 9.8 168.8 10.6 168.8 11.3 168.8 11.8 168.8 12.2 168.8 12.7 168.7 12.7 168.7 12.7 168.7 12.8M166 15.9C166 15.9 166 15.9 166 15.9 166 14.2 166 12.4 166 10.7 166 10.1 166 9.4 165.9 8.8 165.8 8.2 165.7 7.7 165.5 7.2 165 5.6 163.9 4.5 162.3 4 161.6 3.7 160.8 3.6 160 3.6 159.3 3.6 158.6 3.5 157.9 3.5 157 3.5 156.2 3.5 155.3 3.5 153.9 3.5 152.6 3.5 151.2 3.5 150 3.5 148.9 3.5 147.7 3.6 147.2 3.6 146.6 3.6 146.1 3.7 145.5 3.8 145 3.9 144.5 4.1 143.1 4.6 142.1 5.5 141.5 6.9 141.2 7.7 141 8.6 140.9 9.4 140.9 10 140.8 10.6 140.8 11.3 140.8 12.1 140.8 12.9 140.8 13.6 140.8 16.1 140.8 18.7 140.8 21.2 140.8 21.9 140.8 22.5 140.9 23.1 141 23.7 141.1 24.3 141.3 24.8 141.7 25.9 142.4 26.8 143.5 27.5 144.2 28 145 28.2 145.9 28.3 146.5 28.4 147 28.4 147.6 28.4 148.2 28.4 148.7 28.4 149.3 28.4 150 28.4 150.7 28.4 151.3 28.4 153.8 28.4 156.3 28.4 158.7 28.3 159.3 28.3 159.9 28.3 160.5 28.2 161.1 28.1 161.7 28 162.2 27.8 163.4 27.3 164.3 26.5 164.9 25.4 165.3 24.7 165.5 23.9 165.6 23 165.7 22.5 165.7 21.9 165.7 21.4 165.7 20.6 165.7 19.8 165.8 19.1 166 18.1 166 17 166 15.9" fill="#FFFFFF" fill-rule="evenodd" clip-rule="evenodd" clip-path="url(#SVGID_2_)"/><path d="M153.4 8.1C157.7 8.1 161.2 11.5 161.2 16 161.2 20.4 157.6 23.8 153.3 23.8 149.1 23.8 145.5 20.3 145.5 15.9 145.6 11.5 149.2 8.1 153.4 8.1M158.5 15.9C158.5 13 156.1 10.8 153.4 10.8 150.7 10.8 148.3 12.9 148.2 15.9 148.2 18.7 150.4 21 153.2 21 156.2 21 158.5 18.8 158.5 15.9" fill="#FFFFFF" fill-rule="evenodd" clip-rule="evenodd" clip-path="url(#SVGID_2_)"/><path d="M161.6 9.6C160.6 9.6 159.8 8.7 159.8 7.8 159.8 6.8 160.6 6 161.6 6 162.6 6 163.4 6.8 163.4 7.8 163.4 8.7 162.6 9.6 161.6 9.6" fill="#FFFFFF" fill-rule="evenodd" clip-rule="evenodd" clip-path="url(#SVGID_2_)"/><path d="M62.1 0.5 36.1 0.5C34.9 0.5 33.8 1.5 33.8 2.7L33.8 28.8C33.8 30 34.8 31 36.1 31L62.1 31C63.3 31 64.4 30 64.4 28.8L64.4 2.7C64.4 1.5 63.3 0.5 62.1 0.5" fill="#007BB6" clip-path="url(#SVGID_2_)"/><path d="M38.3 12 42.8 12 42.8 26.6 38.3 26.6 38.3 12ZM40.6 4.7C42 4.7 43.2 5.9 43.2 7.3 43.2 8.8 42 9.9 40.6 9.9 39.1 10 38 8.8 38 7.4 38 5.9 39.1 4.7 40.6 4.7" fill="#FFFFFF" clip-path="url(#SVGID_2_)"/><path d="M45.7 12 50 12 50 14 50.1 14C50.7 12.9 52.2 11.6 54.4 11.6 59 11.6 59.8 14.6 59.8 18.5L59.8 26.5 55.3 26.5 55.3 19.4C55.3 17.7 55.3 15.5 52.9 15.5 50.5 15.5 50.2 17.3 50.2 19.2L50.2 26.4 45.7 26.4 45.7 12Z" fill="#FFFFFF" clip-path="url(#SVGID_2_)"/></g><g><defs><rect x="103.4" y="0.5" width="30.7" height="30.8" id="SVGID_3_"/></defs><clipPath id="SVGID_4_"><use width="100%" height="100%" xlink:href="#SVGID_3_" overflow="visible"></use></clipPath><g clip-path="url(#SVGID_4_)"><defs><path d="M203.8 28.2C203.8 29.9 202.4 31.3 200.7 31.3L176.1 31.3C174.4 31.3 173 29.9 173 28.2L173 3.6C173 1.9 174.4 0.5 176.1 0.5L200.7 0.5C202.4 0.5 203.8 1.9 203.8 3.6L203.8 28.2Z" id="SVGID_5_"/></defs><clipPath id="SVGID_6_"><use width="100%" height="100%" xlink:href="#SVGID_5_" overflow="visible"></use></clipPath><g clip-path="url(#SVGID_6_)"><defs><rect x="173" y="0.5" width="30.8" height="30.8" id="SVGID_7_"/></defs><clipPath id="SVGID_8_"><use width="100%" height="100%" xlink:href="#SVGID_7_" overflow="visible"></use></clipPath><linearGradient x1="267.593" y1="205.35" x2="268.593" y2="205.35" gradientUnits="userSpaceOnUse" id="SVGID_9_" gradientTransform="matrix(0 30.7884 30.7884 0 -6133.98 -8238.23)"><stop offset="0" stop-color="#E32C28"/><stop offset="1" stop-color="#B52126"/></linearGradient><rect x="173" y="0.5" width="30.8" height="30.8" fill="url(#SVGID_9_)" clip-path="url(#SVGID_8_)"/></g></g></g><g><defs><rect x="103.4" y="0.5" width="30.7" height="30.8" id="SVGID_10_"/></defs><clipPath id="SVGID_11_"><use width="100%" height="100%" xlink:href="#SVGID_10_" overflow="visible"></use></clipPath><path d="M195.4 8.3 181.3 8.3C179.7 8.3 178.3 9.6 178.3 11.3L178.3 20.5C178.3 22.1 179.6 23.5 181.3 23.5L195.4 23.5C197 23.5 198.4 22.2 198.4 20.5L198.4 11.3C198.4 9.7 197.1 8.3 195.4 8.3M185.5 19.3 185.5 12.6 191.3 15.9 185.5 19.3Z" fill="#FFFFFF" clip-path="url(#SVGID_11_)"/><path d="M30.1 28.8C30.1 29.8 29.3 30.7 28.2 30.7L1.9 30.7C0.9 30.7 0 29.9 0 28.8L0 2.4C0 1.4 0.8 0.5 1.9 0.5L28.3 0.5C29.3 0.5 30.2 1.3 30.2 2.4L30.2 28.8Z" fill="#24BEEF" clip-path="url(#SVGID_11_)"/><path d="M27.8 8.2C27.2 9.1 26.6 9.8 25.7 10.4 25.5 10.6 25.4 10.7 25.4 11 25.3 15.7 23.6 19.6 19.9 22.6 18 24.1 15.8 25 13.4 25.3 10.3 25.7 7.3 25.1 4.6 23.6 4.4 23.5 4.3 23.4 4 23.2 6.7 23.5 9 22.8 11.2 21.2 10.1 21.1 9.2 20.8 8.4 20.1 7.6 19.5 7 18.7 6.7 17.7L8.7 17.7C6.4 16.8 5.2 15.2 5 12.8 5.7 13 6.3 13.2 7 13.4 7 13.4 7 13.3 7.1 13.3 5.9 12.3 5.2 11.1 5.1 9.5 5 8.5 5.3 7.6 5.8 6.8 8.5 9.9 11.8 11.6 15.8 11.9 15.8 11.3 15.7 10.6 15.8 10.1 16.1 8.1 17.2 6.8 19 6.1 20.8 5.5 22.5 5.8 23.9 7.2 24.1 7.4 24.2 7.4 24.5 7.4 25.4 7.1 26.3 6.8 27.2 6.4 26.9 7.4 26.2 8.3 25.3 8.9 25.3 8.9 25.3 9 25.3 9 26.1 8.6 26.9 8.4 27.8 8.2" fill="#FFFFFF" fill-rule="evenodd" clip-rule="evenodd" clip-path="url(#SVGID_11_)"/><path d="M133.8 28.8C133.8 29.8 133 30.7 131.9 30.7L105.5 30.7C104.5 30.7 103.6 29.9 103.6 28.8L103.6 2.4C103.6 1.4 104.4 0.5 105.5 0.5L131.9 0.5C132.9 0.5 133.8 1.3 133.8 2.4L133.8 28.8Z" fill="#3C5A99" clip-path="url(#SVGID_11_)"/><path d="M124.4 30.7 124.4 19.4 128.2 19.4 129.1 14.7 124.4 14.7 124.4 12.8C124.4 10.9 125.3 10 127.2 10L129.1 10 129.1 5.2 125.3 5.2C121.8 5.2 119.6 7.9 119.6 11.8L119.6 14.6 115.8 14.6 115.8 19.3 119.6 19.3 119.6 30.6 124.4 30.6Z" fill="#FFFFFF" clip-path="url(#SVGID_11_)"/><path d="M68.9 29.4 68.9 1.9C68.9 1.2 69.5 0.6 70.2 0.6L97.7 0.6C98.4 0.6 99 1.2 99 1.9L99 29.4C99 30.1 98.4 30.7 97.7 30.7L70.2 30.7C69.5 30.7 68.9 30.1 68.9 29.4" fill="#DC4F42" fill-rule="evenodd" clip-rule="evenodd" clip-path="url(#SVGID_11_)"/><path d="M90.7 13.4 90.7 14.9 92.1 14.9 92.1 16.4 90.7 16.4 90.7 17.9 89.2 17.9 89.2 16.4 87.7 16.4 87.7 14.9 89.2 14.9 89.2 13.4Z" fill="#FFFFFF" fill-rule="evenodd" clip-rule="evenodd" clip-path="url(#SVGID_11_)"/><path d="M77.2 19.3C75.2 17.3 75.2 13.9 77.2 11.9 78.7 10.4 80.9 10.1 82.7 10.8L83.5 11.2 84.3 11.7 83 13.1 82.5 12.8C81.3 12.1 79.7 12.2 78.6 13.3 77.3 14.6 77.3 16.8 78.6 18.1 79.9 19.4 82.1 19.4 83.2 18.1 83.5 17.7 83.8 17.3 83.9 16.8L83.9 16.7 80.9 16.7 80.9 15 85.7 15 85.8 15.4 85.8 16.5C85.7 17.6 85.3 18.6 84.6 19.4 82.7 21.4 79.2 21.3 77.2 19.3" fill="#FFFFFF" fill-rule="evenodd" clip-rule="evenodd" clip-path="url(#SVGID_11_)"/></g><g><defs><rect x="137.7" y="0" width="31.4" height="30.8" id="SVGID_12_"/></defs><clipPath id="SVGID_13_"><use width="100%" height="100%" xlink:href="#SVGID_12_" overflow="visible"></use></clipPath><path d="M168.7 12.3 168.7 18.5C168.7 18.6 168.7 18.6 168.7 18.7 168.7 19.5 168.7 20.2 168.7 21 168.7 21.7 168.6 22.4 168.6 23.1 168.5 23.9 168.3 24.7 168 25.5 167.3 27.4 165.9 28.8 164.1 29.8 163 30.4 161.7 30.6 160.5 30.7 159.9 30.7 159.4 30.8 158.8 30.8 158.1 30.8 157.5 30.8 156.8 30.8 156.8 30.8 156.7 30.8 156.7 30.8L150.5 30.8C150.5 30.8 150.4 30.8 150.4 30.8 149.6 30.8 148.7 30.8 147.9 30.7 147.3 30.7 146.6 30.6 146 30.6 145.3 30.5 144.6 30.3 143.9 30.1 141.7 29.3 140.1 27.8 139.2 25.6 138.8 24.6 138.6 23.5 138.5 22.4 138.5 21.7 138.4 21 138.4 20.3 138.4 19.8 138.4 10.8 138.4 10 138.4 9.4 138.5 8.8 138.5 8.2 138.6 7.5 138.7 6.9 138.9 6.2 139.4 4.6 140.3 3.2 141.6 2.1 142.8 1.1 144.3 0.6 145.8 0.4 146.2 0.3 146.7 0.3 147.1 0.3 147.8 0.3 148.5 0.2 149.1 0.2 149.5 0.2 149.9 0.2 150.3 0.2 150.3 0.2 150.4 0.2 150.4 0.2L156.6 0.2C156.6 0.2 156.7 0.2 156.7 0.2 157.6 0.2 158.5 0.2 159.5 0.3 160.1 0.3 160.7 0.4 161.3 0.4 162 0.5 162.7 0.7 163.4 0.9 165.7 1.7 167.2 3.3 168.1 5.5 168.5 6.5 168.7 7.5 168.7 8.6 168.7 9.3 168.8 10.1 168.8 10.8 168.8 11.3 168.8 11.7 168.8 12.2 168.7 12.2 168.7 12.2 168.7 12.3M166 15.4C166 15.4 166 15.4 166 15.4 166 13.7 166 11.9 166 10.2 166 9.6 166 8.9 165.9 8.3 165.8 7.7 165.7 7.2 165.5 6.7 165 5.1 163.9 4 162.3 3.5 161.6 3.2 160.8 3.1 160 3.1 159.3 3.1 158.6 3 157.9 3 157 3 156.2 3 155.3 3 153.9 3 152.6 3 151.2 3 150 3 148.9 3 147.7 3.1 147.2 3.1 146.6 3.1 146.1 3.2 145.5 3.3 145 3.4 144.5 3.6 143.1 4.1 142.1 5 141.5 6.4 141.2 7.2 141 8.1 140.9 8.9 140.9 9.5 140.8 10.1 140.8 10.8 140.8 11.6 140.8 12.4 140.8 13.1 140.8 15.6 140.8 18.2 140.8 20.7 140.8 21.4 140.8 22 140.9 22.6 141 23.2 141.1 23.8 141.3 24.3 141.7 25.4 142.4 26.3 143.5 27 144.2 27.5 145 27.7 145.9 27.8 146.5 27.9 147 27.9 147.6 27.9 148.2 27.9 148.7 27.9 149.3 27.9 150 27.9 150.7 27.9 151.3 27.9 153.8 27.9 156.3 27.9 158.7 27.8 159.3 27.8 159.9 27.8 160.5 27.7 161.1 27.6 161.7 27.5 162.2 27.3 163.4 26.8 164.3 26 164.9 24.9 165.3 24.2 165.5 23.4 165.6 22.5 165.7 22 165.7 21.4 165.7 20.9 165.7 20.1 165.7 19.3 165.8 18.6 166 17.5 166 16.5 166 15.4" fill="#FFFFFF" fill-rule="evenodd" clip-rule="evenodd" clip-path="url(#SVGID_13_)"/><path d="M153.4 7.5C157.7 7.5 161.2 10.9 161.2 15.4 161.2 19.8 157.6 23.2 153.3 23.2 149.1 23.2 145.5 19.7 145.5 15.3 145.6 11 149.2 7.5 153.4 7.5M158.5 15.4C158.5 12.5 156.1 10.3 153.4 10.3 150.7 10.3 148.3 12.4 148.2 15.4 148.2 18.2 150.4 20.5 153.2 20.5 156.2 20.5 158.5 18.3 158.5 15.4" fill="#FFFFFF" fill-rule="evenodd" clip-rule="evenodd" clip-path="url(#SVGID_13_)"/><path d="M161.6 9C160.6 9 159.8 8.1 159.8 7.2 159.8 6.2 160.6 5.4 161.6 5.4 162.6 5.4 163.4 6.2 163.4 7.2 163.4 8.2 162.6 9.1 161.6 9" fill="#FFFFFF" fill-rule="evenodd" clip-rule="evenodd" clip-path="url(#SVGID_13_)"/><path d="M62.1 0 36.1 0C34.9 0 33.8 1 33.8 2.2L33.8 28.3C33.8 29.5 34.8 30.5 36.1 30.5L62.1 30.5C63.3 30.5 64.4 29.5 64.4 28.3L64.4 2.2C64.4 1 63.3 0 62.1 0" fill="#007BB6" clip-path="url(#SVGID_13_)"/><path d="M38.3 11.5 42.8 11.5 42.8 26 38.3 26 38.3 11.5ZM40.6 4.2C42 4.2 43.2 5.4 43.2 6.8 43.2 8.3 42 9.4 40.6 9.4 39.1 9.4 38 8.2 38 6.8 38 5.4 39.1 4.2 40.6 4.2" fill="#FFFFFF" clip-path="url(#SVGID_13_)"/><path d="M45.7 11.5 50 11.5 50 13.5 50.1 13.5C50.7 12.4 52.2 11.1 54.4 11.1 59 11.1 59.8 14.1 59.8 18L59.8 26 55.3 26 55.3 18.9C55.3 17.2 55.3 15 52.9 15 50.5 15 50.2 16.8 50.2 18.7L50.2 26 45.7 26 45.7 11.5Z" fill="#FFFFFF" clip-path="url(#SVGID_13_)"/></g><g><defs><rect x="137.7" y="0" width="31.4" height="30.8" id="SVGID_14_"/></defs><clipPath id="SVGID_15_"><use width="100%" height="100%" xlink:href="#SVGID_14_" overflow="visible"></use></clipPath><g clip-path="url(#SVGID_15_)"><defs><path d="M203.8 27.7C203.8 29.4 202.4 30.8 200.7 30.8L176.1 30.8C174.4 30.8 173 29.4 173 27.7L173 3.1C173 1.4 174.4 0 176.1 0L200.7 0C202.4 0 203.8 1.4 203.8 3.1L203.8 27.7Z" id="SVGID_16_"/></defs><clipPath id="SVGID_17_"><use width="100%" height="100%" xlink:href="#SVGID_16_" overflow="visible"></use></clipPath><g clip-path="url(#SVGID_17_)"><defs><rect x="173" y="0" width="30.8" height="30.8" id="SVGID_18_"/></defs><clipPath id="SVGID_19_"><use width="100%" height="100%" xlink:href="#SVGID_18_" overflow="visible"></use></clipPath><linearGradient x1="267.593" y1="205.35" x2="268.593" y2="205.35" gradientUnits="userSpaceOnUse" id="SVGID_20_" gradientTransform="matrix(0 30.7884 30.7884 0 -6133.98 -8238.75)"><stop offset="0" stop-color="#E32C28"/><stop offset="1" stop-color="#B52126"/></linearGradient><rect x="173" y="0" width="30.8" height="30.8" fill="url(#SVGID_20_)" clip-path="url(#SVGID_19_)"/></g></g></g><g><defs><rect x="137.7" y="0" width="31.4" height="30.8" id="SVGID_21_"/></defs><clipPath id="SVGID_22_"><use width="100%" height="100%" xlink:href="#SVGID_21_" overflow="visible"></use></clipPath><path d="M195.4 7.8 181.3 7.8C179.7 7.8 178.3 9.1 178.3 10.8L178.3 20C178.3 21.6 179.6 23 181.3 23L195.4 23C197 23 198.4 21.7 198.4 20L198.4 10.8C198.4 9.1 197.1 7.8 195.4 7.8M185.5 18.7 185.5 12 191.3 15.3 185.5 18.7Z" fill="#FFFFFF" clip-path="url(#SVGID_22_)"/><path d="M30.1 28.3C30.1 29.3 29.3 30.2 28.2 30.2L1.9 30.2C0.9 30.2 0 29.4 0 28.3L0 1.9C0 0.8 0.8 0 1.9 0L28.3 0C29.3 0 30.2 0.8 30.2 1.9L30.2 28.3Z" fill="#24BEEF" clip-path="url(#SVGID_22_)"/><path d="M27.8 7.6C27.2 8.5 26.6 9.2 25.7 9.8 25.5 10 25.4 10.1 25.4 10.4 25.3 15.1 23.6 19 19.9 22 18 23.5 15.8 24.4 13.4 24.7 10.3 25.1 7.3 24.5 4.6 23 4.4 22.9 4.3 22.8 4 22.6 6.7 22.9 9 22.2 11.2 20.6 10.1 20.5 9.2 20.2 8.4 19.5 7.6 18.9 7 18.1 6.7 17.1L8.7 17.1C6.4 16.2 5.2 14.6 5 12.2 5.7 12.4 6.3 12.6 7 12.8 7 12.8 7 12.7 7.1 12.7 5.9 11.7 5.2 10.5 5.1 8.9 4.8 7.9 5.1 7 5.6 6.2 8.3 9.3 11.6 11 15.6 11.3 15.6 10.7 15.5 10 15.6 9.5 15.9 7.5 17 6.2 18.8 5.5 20.6 4.9 22.3 5.2 23.7 6.6 23.9 6.8 24 6.8 24.3 6.8 25.2 6.5 26.1 6.2 27 5.8 26.7 6.8 26 7.7 25.1 8.3 25.1 8.3 25.1 8.4 25.1 8.4 26.1 8.1 26.9 7.9 27.8 7.6" fill="#FFFFFF" fill-rule="evenodd" clip-rule="evenodd" clip-path="url(#SVGID_22_)"/><path d="M133.8 28.3C133.8 29.3 133 30.2 131.9 30.2L105.5 30.2C104.5 30.2 103.6 29.4 103.6 28.3L103.6 1.9C103.6 0.9 104.4 0 105.5 0L131.9 0C132.9 0 133.8 0.8 133.8 1.9L133.8 28.3Z" fill="#3C5A99" clip-path="url(#SVGID_22_)"/><path d="M124.4 30.1 124.4 18.8 128.2 18.8 129.1 14.1 124.4 14.1 124.4 12.2C124.4 10.3 125.3 9.4 127.2 9.4L129.1 9.4 129.1 4.7 125.3 4.7C121.8 4.7 119.6 7.4 119.6 11.3L119.6 14.1 115.8 14.1 115.8 18.8 119.6 18.8 119.6 30.1 124.4 30.1Z" fill="#FFFFFF" clip-path="url(#SVGID_22_)"/><path d="M68.9 28.9 68.9 1.4C68.9 0.7 69.5 0.1 70.2 0.1L97.7 0.1C98.4 0.1 99 0.7 99 1.4L99 28.9C99 29.6 98.4 30.2 97.7 30.2L70.2 30.2C69.5 30.1 68.9 29.6 68.9 28.9" fill="#DC4F42" fill-rule="evenodd" clip-rule="evenodd" clip-path="url(#SVGID_22_)"/><path d="M90.7 12.9 90.7 14.4 92.1 14.4 92.1 15.9 90.7 15.9 90.7 17.4 89.2 17.4 89.2 15.9 87.7 15.9 87.7 14.4 89.2 14.4 89.2 12.9Z" fill="#FFFFFF" fill-rule="evenodd" clip-rule="evenodd" clip-path="url(#SVGID_22_)"/><path d="M77.2 18.8C75.2 16.8 75.2 13.4 77.2 11.4 78.7 9.9 80.9 9.6 82.7 10.3L83.5 10.7 84.3 11.2 83 12.6 82.5 12.3C81.3 11.6 79.7 11.7 78.6 12.8 77.3 14.1 77.3 16.3 78.6 17.6 79.9 18.9 82.1 18.9 83.2 17.6 83.5 17.2 83.8 16.8 83.9 16.3L83.9 16.2 80.9 16.2 80.9 14.6 85.7 14.6 85.8 15 85.8 16.1C85.7 17.2 85.3 18.2 84.6 19 82.7 20.8 79.2 20.8 77.2 18.8" fill="#FFFFFF" fill-rule="evenodd" clip-rule="evenodd" clip-path="url(#SVGID_22_)"/></g><g><defs><rect x="172.7" y="0" width="31.1" height="30.8" id="SVGID_23_"/></defs><clipPath id="SVGID_24_"><use width="100%" height="100%" xlink:href="#SVGID_23_" overflow="visible"></use></clipPath><path d="M168.7 12.3 168.7 18.5C168.7 18.6 168.7 18.6 168.7 18.7 168.7 19.5 168.7 20.2 168.7 21 168.7 21.7 168.6 22.4 168.6 23.1 168.5 23.9 168.3 24.7 168 25.5 167.3 27.4 165.9 28.8 164.1 29.8 163 30.4 161.7 30.6 160.5 30.7 159.9 30.7 159.4 30.8 158.8 30.8 158.1 30.8 157.5 30.8 156.8 30.8 156.8 30.8 156.7 30.8 156.7 30.8L150.5 30.8C150.5 30.8 150.4 30.8 150.4 30.8 149.6 30.8 148.7 30.8 147.9 30.7 147.3 30.7 146.6 30.6 146 30.6 145.3 30.5 144.6 30.3 143.9 30.1 141.7 29.3 140.1 27.8 139.2 25.6 138.8 24.6 138.6 23.5 138.5 22.4 138.5 21.7 138.4 21 138.4 20.3 138.4 19.8 138.4 10.8 138.4 10 138.4 9.4 138.5 8.8 138.5 8.2 138.6 7.5 138.7 6.9 138.9 6.2 139.4 4.6 140.3 3.2 141.6 2.1 142.8 1.1 144.3 0.6 145.8 0.4 146.2 0.3 146.7 0.3 147.1 0.3 147.8 0.3 148.5 0.2 149.1 0.2 149.5 0.2 149.9 0.2 150.3 0.2 150.3 0.2 150.4 0.2 150.4 0.2L156.6 0.2C156.6 0.2 156.7 0.2 156.7 0.2 157.6 0.2 158.5 0.2 159.5 0.3 160.1 0.3 160.7 0.4 161.3 0.4 162 0.5 162.7 0.7 163.4 0.9 165.7 1.7 167.2 3.3 168.1 5.5 168.5 6.5 168.7 7.5 168.7 8.6 168.7 9.3 168.8 10.1 168.8 10.8 168.8 11.3 168.8 11.7 168.8 12.2 168.7 12.2 168.7 12.2 168.7 12.3M166 15.4C166 15.4 166 15.4 166 15.4 166 13.7 166 11.9 166 10.2 166 9.6 166 8.9 165.9 8.3 165.8 7.7 165.7 7.2 165.5 6.7 165 5.1 163.9 4 162.3 3.5 161.6 3.2 160.8 3.1 160 3.1 159.3 3.1 158.6 3 157.9 3 157 3 156.2 3 155.3 3 153.9 3 152.6 3 151.2 3 150 3 148.9 3 147.7 3.1 147.2 3.1 146.6 3.1 146.1 3.2 145.5 3.3 145 3.4 144.5 3.6 143.1 4.1 142.1 5 141.5 6.4 141.2 7.2 141 8.1 140.9 8.9 140.9 9.5 140.8 10.1 140.8 10.8 140.8 11.6 140.8 12.4 140.8 13.1 140.8 15.6 140.8 18.2 140.8 20.7 140.8 21.4 140.8 22 140.9 22.6 141 23.2 141.1 23.8 141.3 24.3 141.7 25.4 142.4 26.3 143.5 27 144.2 27.5 145 27.7 145.9 27.8 146.5 27.9 147 27.9 147.6 27.9 148.2 27.9 148.7 27.9 149.3 27.9 150 27.9 150.7 27.9 151.3 27.9 153.8 27.9 156.3 27.9 158.7 27.8 159.3 27.8 159.9 27.8 160.5 27.7 161.1 27.6 161.7 27.5 162.2 27.3 163.4 26.8 164.3 26 164.9 24.9 165.3 24.2 165.5 23.4 165.6 22.5 165.7 22 165.7 21.4 165.7 20.9 165.7 20.1 165.7 19.3 165.8 18.6 166 17.5 166 16.5 166 15.4" fill="#FFFFFF" fill-rule="evenodd" clip-rule="evenodd" clip-path="url(#SVGID_24_)"/><path d="M153.4 7.5C157.7 7.5 161.2 10.9 161.2 15.4 161.2 19.8 157.6 23.2 153.3 23.2 149.1 23.2 145.5 19.7 145.5 15.3 145.6 11 149.2 7.5 153.4 7.5M158.5 15.4C158.5 12.5 156.1 10.3 153.4 10.3 150.7 10.3 148.3 12.4 148.2 15.4 148.2 18.2 150.4 20.5 153.2 20.5 156.2 20.5 158.5 18.3 158.5 15.4" fill="#FFFFFF" fill-rule="evenodd" clip-rule="evenodd" clip-path="url(#SVGID_24_)"/><path d="M161.6 9C160.6 9 159.8 8.1 159.8 7.2 159.8 6.2 160.6 5.4 161.6 5.4 162.6 5.4 163.4 6.2 163.4 7.2 163.4 8.2 162.6 9.1 161.6 9" fill="#FFFFFF" fill-rule="evenodd" clip-rule="evenodd" clip-path="url(#SVGID_24_)"/><path d="M62.1 0 36.1 0C34.9 0 33.8 1 33.8 2.2L33.8 28.3C33.8 29.5 34.8 30.5 36.1 30.5L62.1 30.5C63.3 30.5 64.4 29.5 64.4 28.3L64.4 2.2C64.4 1 63.3 0 62.1 0" fill="#007BB6" clip-path="url(#SVGID_24_)"/><path d="M38.3 11.5 42.8 11.5 42.8 26 38.3 26 38.3 11.5ZM40.6 4.2C42 4.2 43.2 5.4 43.2 6.8 43.2 8.3 42 9.4 40.6 9.4 39.1 9.4 38 8.2 38 6.8 38 5.4 39.1 4.2 40.6 4.2" fill="#FFFFFF" clip-path="url(#SVGID_24_)"/><path d="M45.7 11.5 50 11.5 50 13.5 50.1 13.5C50.7 12.4 52.2 11.1 54.4 11.1 59 11.1 59.8 14.1 59.8 18L59.8 26 55.3 26 55.3 18.9C55.3 17.2 55.3 15 52.9 15 50.5 15 50.2 16.8 50.2 18.7L50.2 26 45.7 26 45.7 11.5Z" fill="#FFFFFF" clip-path="url(#SVGID_24_)"/></g><g><defs><path d="M176.1 0C174.4 0 173 1.4 173 3.1L173 27.7C173 29.4 174.4 30.8 176.1 30.8L200.7 30.8C202.4 30.8 203.8 29.4 203.8 27.7L203.8 3.1C203.8 1.4 202.4 0 200.7 0L176.1 0Z" id="SVGID_25_"/></defs><clipPath id="SVGID_26_"><use width="100%" height="100%" xlink:href="#SVGID_25_" overflow="visible"></use></clipPath><linearGradient x1="267.593" y1="205.35" x2="268.593" y2="205.35" gradientUnits="userSpaceOnUse" id="SVGID_27_" gradientTransform="matrix(0 30.7884 30.7884 0 -6133.98 -8238.75)"><stop offset="0" stop-color="#E32C28"/><stop offset="1" stop-color="#B52126"/></linearGradient><rect x="173" y="0" width="30.8" height="30.8" fill="url(#SVGID_27_)" clip-path="url(#SVGID_26_)"/></g><g><defs><rect x="172.7" y="0" width="31.1" height="30.8" id="SVGID_28_"/></defs><clipPath id="SVGID_29_"><use width="100%" height="100%" xlink:href="#SVGID_28_" overflow="visible"></use></clipPath><path d="M195.4 7.8 181.3 7.8C179.7 7.8 178.3 9.1 178.3 10.8L178.3 20C178.3 21.6 179.6 23 181.3 23L195.4 23C197 23 198.4 21.7 198.4 20L198.4 10.8C198.4 9.1 197.1 7.8 195.4 7.8M185.5 18.7 185.5 12 191.3 15.3 185.5 18.7Z" fill="#FFFFFF" clip-path="url(#SVGID_29_)"/><path d="M30.1 28.3C30.1 29.3 29.3 30.2 28.2 30.2L1.9 30.2C0.9 30.2 0 29.4 0 28.3L0 1.9C0 0.8 0.8 0 1.9 0L28.3 0C29.3 0 30.2 0.8 30.2 1.9L30.2 28.3Z" fill="#24BEEF" clip-path="url(#SVGID_29_)"/><path d="M27.8 7.6C27.2 8.5 26.6 9.2 25.7 9.8 25.5 10 25.4 10.1 25.4 10.4 25.3 15.1 23.6 19 19.9 22 18 23.5 15.8 24.4 13.4 24.7 10.3 25.1 7.3 24.5 4.6 23 4.4 22.9 4.3 22.8 4 22.6 6.7 22.9 9 22.2 11.2 20.6 10.1 20.5 9.2 20.2 8.4 19.5 7.6 18.9 7 18.1 6.7 17.1L8.7 17.1C6.4 16.2 5.2 14.6 5 12.2 5.7 12.4 6.3 12.6 7 12.8 7 12.8 7 12.7 7.1 12.7 5.9 11.7 5.2 10.5 5.1 8.9 4.8 7.9 5.1 7 5.6 6.2 8.3 9.3 11.6 11 15.6 11.3 15.6 10.7 15.5 10 15.6 9.5 15.9 7.5 17 6.2 18.8 5.5 20.6 4.9 22.3 5.2 23.7 6.6 23.9 6.8 24 6.8 24.3 6.8 25.2 6.5 26.1 6.2 27 5.8 26.7 6.8 26 7.7 25.1 8.3 25.1 8.3 25.1 8.4 25.1 8.4 26.1 8.1 26.9 7.9 27.8 7.6" fill="#FFFFFF" fill-rule="evenodd" clip-rule="evenodd" clip-path="url(#SVGID_29_)"/><path d="M133.8 28.3C133.8 29.3 133 30.2 131.9 30.2L105.5 30.2C104.5 30.2 103.6 29.4 103.6 28.3L103.6 1.9C103.6 0.9 104.4 0 105.5 0L131.9 0C132.9 0 133.8 0.8 133.8 1.9L133.8 28.3Z" fill="#3C5A99" clip-path="url(#SVGID_29_)"/><path d="M124.4 30.1 124.4 18.8 128.2 18.8 129.1 14.1 124.4 14.1 124.4 12.2C124.4 10.3 125.3 9.4 127.2 9.4L129.1 9.4 129.1 4.7 125.3 4.7C121.8 4.7 119.6 7.4 119.6 11.3L119.6 14.1 115.8 14.1 115.8 18.8 119.6 18.8 119.6 30.1 124.4 30.1Z" fill="#FFFFFF" clip-path="url(#SVGID_29_)"/><path d="M68.9 28.9 68.9 1.4C68.9 0.7 69.5 0.1 70.2 0.1L97.7 0.1C98.4 0.1 99 0.7 99 1.4L99 28.9C99 29.6 98.4 30.2 97.7 30.2L70.2 30.2C69.5 30.1 68.9 29.6 68.9 28.9" fill="#DC4F42" fill-rule="evenodd" clip-rule="evenodd" clip-path="url(#SVGID_29_)"/><path d="M90.7 12.9 90.7 14.4 92.1 14.4 92.1 15.9 90.7 15.9 90.7 17.4 89.2 17.4 89.2 15.9 87.7 15.9 87.7 14.4 89.2 14.4 89.2 12.9Z" fill="#FFFFFF" fill-rule="evenodd" clip-rule="evenodd" clip-path="url(#SVGID_29_)"/><path d="M77.2 18.8C75.2 16.8 75.2 13.4 77.2 11.4 78.7 9.9 80.9 9.6 82.7 10.3L83.5 10.7 84.3 11.2 83 12.6 82.5 12.3C81.3 11.6 79.7 11.7 78.6 12.8 77.3 14.1 77.3 16.3 78.6 17.6 79.9 18.9 82.1 18.9 83.2 17.6 83.5 17.2 83.8 16.8 83.9 16.3L83.9 16.2 80.9 16.2 80.9 14.6 85.7 14.6 85.8 15 85.8 16.1C85.7 17.2 85.3 18.2 84.6 19 82.7 20.8 79.2 20.8 77.2 18.8" fill="#FFFFFF" fill-rule="evenodd" clip-rule="evenodd" clip-path="url(#SVGID_29_)"/></g><g><defs><rect x="35" y="0.5" width="30.2" height="30.8" id="SVGID_30_"/></defs><clipPath id="SVGID_31_"><use width="100%" height="100%" xlink:href="#SVGID_30_" overflow="visible"></use></clipPath><path d="M203.7 12.8 203.7 19C203.7 19.1 203.7 19.1 203.7 19.2 203.7 20 203.7 20.7 203.7 21.5 203.7 22.2 203.6 22.9 203.6 23.6 203.5 24.4 203.3 25.2 203 26 202.3 27.9 200.9 29.3 199.1 30.3 198 30.9 196.7 31.1 195.5 31.2 194.9 31.2 194.4 31.3 193.8 31.3 193.1 31.3 192.5 31.3 191.8 31.3 191.8 31.3 191.7 31.3 191.7 31.3L185.5 31.3C185.5 31.3 185.4 31.3 185.4 31.3 184.6 31.3 183.7 31.3 182.9 31.2 182.3 31.2 181.6 31.1 181 31.1 180.3 31 179.6 30.8 178.9 30.6 176.7 29.8 175.1 28.3 174.2 26.1 173.8 25.1 173.6 24 173.5 22.9 173.5 22.2 173.4 21.5 173.4 20.8 173.4 20.3 173.4 11.3 173.4 10.5 173.4 9.9 173.5 9.3 173.5 8.7 173.6 8 173.7 7.4 173.9 6.7 174.4 5.1 175.3 3.7 176.6 2.6 177.8 1.6 179.3 1.1 180.8 0.9 181.2 0.8 181.7 0.8 182.1 0.8 182.8 0.8 183.5 0.7 184.1 0.7 184.5 0.7 184.9 0.7 185.3 0.7 185.3 0.7 185.4 0.7 185.4 0.7L191.6 0.7C191.6 0.7 191.7 0.7 191.7 0.7 192.6 0.7 193.5 0.7 194.5 0.8 195.1 0.8 195.7 0.9 196.3 0.9 197 1 197.7 1.2 198.4 1.4 200.7 2.2 202.2 3.8 203.1 6 203.5 7 203.7 8 203.7 9.1 203.7 9.8 203.8 10.6 203.8 11.3 203.8 11.8 203.8 12.2 203.8 12.7 203.6 12.7 203.6 12.7 203.7 12.8M200.9 15.9C200.9 15.9 200.9 15.9 200.9 15.9 200.9 14.2 200.9 12.4 200.9 10.7 200.9 10.1 200.9 9.4 200.8 8.8 200.7 8.2 200.6 7.7 200.4 7.2 199.9 5.6 198.8 4.5 197.2 4 196.5 3.7 195.7 3.6 194.9 3.6 194.2 3.6 193.5 3.5 192.8 3.5 191.9 3.5 191.1 3.5 190.2 3.5 188.8 3.5 187.5 3.5 186.1 3.5 184.9 3.5 183.8 3.5 182.6 3.6 182.1 3.6 181.5 3.6 181 3.7 180.4 3.8 179.9 3.9 179.4 4.1 178 4.6 177 5.5 176.4 6.9 176.1 7.7 175.9 8.6 175.8 9.4 175.8 10 175.7 10.6 175.7 11.3 175.7 12.1 175.7 12.9 175.7 13.6 175.7 16.1 175.7 18.7 175.7 21.2 175.7 21.9 175.7 22.5 175.8 23.1 175.9 23.7 176 24.3 176.2 24.8 176.6 25.9 177.3 26.8 178.4 27.5 179.1 28 179.9 28.2 180.8 28.3 181.4 28.4 181.9 28.4 182.5 28.4 183.1 28.4 183.6 28.4 184.2 28.4 184.9 28.4 185.6 28.4 186.2 28.4 188.7 28.4 191.2 28.4 193.6 28.3 194.2 28.3 194.8 28.3 195.4 28.2 196 28.1 196.6 28 197.1 27.8 198.3 27.3 199.2 26.5 199.8 25.4 200.2 24.7 200.4 23.9 200.5 23 200.6 22.5 200.6 21.9 200.6 21.4 200.6 20.6 200.6 19.8 200.7 19.1 200.9 18.1 200.9 17 200.9 15.9" fill="#FFFFFF" fill-rule="evenodd" clip-rule="evenodd" clip-path="url(#SVGID_31_)"/><path d="M188.4 8.1C192.7 8.1 196.2 11.5 196.2 16 196.2 20.4 192.6 23.8 188.3 23.8 184.1 23.8 180.5 20.3 180.5 15.9 180.6 11.5 184.1 8.1 188.4 8.1M193.5 15.9C193.5 13 191.1 10.8 188.4 10.8 185.7 10.8 183.3 12.9 183.2 15.9 183.2 18.7 185.4 21 188.2 21 191.1 21 193.5 18.8 193.5 15.9" fill="#FFFFFF" fill-rule="evenodd" clip-rule="evenodd" clip-path="url(#SVGID_31_)"/><path d="M196.5 9.6C195.5 9.6 194.7 8.7 194.7 7.8 194.7 6.8 195.5 6 196.5 6 197.5 6 198.3 6.8 198.3 7.8 198.4 8.7 197.5 9.6 196.5 9.6" fill="#FFFFFF" fill-rule="evenodd" clip-rule="evenodd" clip-path="url(#SVGID_31_)"/><path d="M97 0.5 71 0.5C69.8 0.5 68.7 1.5 68.7 2.7L68.7 28.8C68.7 30 69.7 31 71 31L97 31C98.2 31 99.3 30 99.3 28.8L99.3 2.7C99.3 1.5 98.3 0.5 97 0.5" fill="#007BB6" clip-path="url(#SVGID_31_)"/><path d="M73.3 12 77.8 12 77.8 26.6 73.3 26.6 73.3 12ZM75.5 4.7C76.9 4.7 78.1 5.9 78.1 7.3 78.1 8.8 76.9 9.9 75.5 9.9 74 9.9 72.9 8.7 72.9 7.3 72.9 5.9 74.1 4.7 75.5 4.7" fill="#FFFFFF" clip-path="url(#SVGID_31_)"/><path d="M80.7 12 85 12 85 14 85.1 14C85.7 12.9 87.2 11.6 89.4 11.6 94 11.6 94.8 14.6 94.8 18.5L94.8 26.5 90.3 26.5 90.3 19.4C90.3 17.7 90.3 15.5 87.9 15.5 85.5 15.5 85.2 17.3 85.2 19.2L85.2 26.4 80.7 26.4 80.7 12Z" fill="#FFFFFF" clip-path="url(#SVGID_31_)"/></g><g><defs><rect x="35" y="0.5" width="30.2" height="30.8" id="SVGID_32_"/></defs><clipPath id="SVGID_33_"><use width="100%" height="100%" xlink:href="#SVGID_32_" overflow="visible"></use></clipPath><g clip-path="url(#SVGID_33_)"><defs><path d="M238.7 28.2C238.7 29.9 237.3 31.3 235.6 31.3L211 31.3C209.3 31.3 207.9 29.9 207.9 28.2L207.9 3.6C207.9 1.9 209.3 0.5 211 0.5L235.6 0.5C237.3 0.5 238.7 1.9 238.7 3.6L238.7 28.2Z" id="SVGID_34_"/></defs><clipPath id="SVGID_35_"><use width="100%" height="100%" xlink:href="#SVGID_34_" overflow="visible"></use></clipPath><g clip-path="url(#SVGID_35_)"><defs><rect x="208" y="0.5" width="30.8" height="30.8" id="SVGID_36_"/></defs><clipPath id="SVGID_37_"><use width="100%" height="100%" xlink:href="#SVGID_36_" overflow="visible"></use></clipPath><linearGradient x1="267.593" y1="205.35" x2="268.593" y2="205.35" gradientUnits="userSpaceOnUse" id="SVGID_38_" gradientTransform="matrix(0 30.7884 30.7884 0 -6099.03 -8238.23)"><stop offset="0" stop-color="#E32C28"/><stop offset="1" stop-color="#B52126"/></linearGradient><rect x="208" y="0.5" width="30.8" height="30.8" fill="url(#SVGID_38_)" clip-path="url(#SVGID_37_)"/></g></g></g><g><defs><rect x="35" y="0.5" width="30.2" height="30.8" id="SVGID_39_"/></defs><clipPath id="SVGID_40_"><use width="100%" height="100%" xlink:href="#SVGID_39_" overflow="visible"></use></clipPath><path d="M230.4 8.3 216.3 8.3C214.7 8.3 213.3 9.6 213.3 11.3L213.3 20.5C213.3 22.1 214.6 23.5 216.3 23.5L230.4 23.5C232 23.5 233.4 22.2 233.4 20.5L233.4 11.3C233.4 9.7 232 8.3 230.4 8.3M220.5 19.3 220.5 12.6 226.3 15.9 220.5 19.3Z" fill="#FFFFFF" clip-path="url(#SVGID_40_)"/><path d="M65.1 28.8C65.1 29.8 64.3 30.7 63.2 30.7L36.8 30.7C35.8 30.7 34.9 29.9 34.9 28.8L34.9 2.4C34.9 1.4 35.7 0.5 36.8 0.5L63.2 0.5C64.2 0.5 65.1 1.3 65.1 2.4L65.1 28.8Z" fill="#24BEEF" clip-path="url(#SVGID_40_)"/><path d="M62.7 8.2C62.1 9.1 61.5 9.8 60.6 10.4 60.4 10.6 60.3 10.7 60.3 11 60.2 15.7 58.5 19.6 54.8 22.6 52.9 24.1 50.7 25 48.3 25.3 45.2 25.7 42.2 25.1 39.5 23.6 39.3 23.5 39.2 23.4 38.9 23.2 41.6 23.5 43.9 22.8 46.1 21.2 45 21.1 44.1 20.8 43.3 20.1 42.5 19.5 41.9 18.7 41.6 17.7L43.6 17.7C41.3 16.8 40.1 15.2 39.9 12.8 40.6 13 41.2 13.2 41.9 13.4 41.9 13.4 41.9 13.3 42 13.3 40.8 12.3 40.1 11.1 40 9.5 39.9 8.5 40.2 7.6 40.7 6.8 43.4 9.9 46.7 11.6 50.7 11.9 50.7 11.3 50.6 10.6 50.7 10.1 51 8.1 52.1 6.8 53.9 6.1 55.7 5.5 57.4 5.8 58.8 7.2 59 7.4 59.1 7.4 59.4 7.4 60.3 7.1 61.2 6.8 62.1 6.4 61.8 7.4 61.1 8.3 60.2 8.9 60.2 8.9 60.2 9 60.2 9 61 8.6 61.8 8.4 62.7 8.2" fill="#FFFFFF" fill-rule="evenodd" clip-rule="evenodd" clip-path="url(#SVGID_40_)"/><path d="M168.8 28.8C168.8 29.8 168 30.7 166.9 30.7L140.5 30.7C139.5 30.7 138.6 29.9 138.6 28.8L138.6 2.4C138.6 1.4 139.4 0.5 140.5 0.5L166.9 0.5C167.9 0.5 168.8 1.3 168.8 2.4L168.8 28.8Z" fill="#3C5A99" clip-path="url(#SVGID_40_)"/><path d="M159.3 30.7 159.3 19.4 163.1 19.4 164 14.7 159.3 14.7 159.3 12.8C159.3 10.9 160.2 10 162.1 10L164 10 164 5.2 160.2 5.2C156.7 5.2 154.5 7.9 154.5 11.8L154.5 14.6 150.7 14.6 150.7 19.3 154.5 19.3 154.5 30.6 159.3 30.6Z" fill="#FFFFFF" clip-path="url(#SVGID_40_)"/><path d="M103.9 29.4 103.9 1.9C103.9 1.2 104.5 0.6 105.2 0.6L132.7 0.6C133.4 0.6 134 1.2 134 1.9L134 29.4C134 30.1 133.4 30.7 132.7 30.7L105.2 30.7C104.4 30.7 103.9 30.1 103.9 29.4" fill="#DC4F42" fill-rule="evenodd" clip-rule="evenodd" clip-path="url(#SVGID_40_)"/><path d="M125.6 13.4 125.6 14.9 127.1 14.9 127.1 16.4 125.6 16.4 125.6 17.9 124.1 17.9 124.1 16.4 122.6 16.4 122.6 14.9 124.1 14.9 124.1 13.4Z" fill="#FFFFFF" fill-rule="evenodd" clip-rule="evenodd" clip-path="url(#SVGID_40_)"/><path d="M112.1 19.3C110.1 17.3 110.1 13.9 112.1 11.9 113.6 10.4 115.8 10.1 117.6 10.8L118.4 11.2 119.2 11.7 117.8 13 117.3 12.7C116.1 12 114.5 12.1 113.4 13.2 112.1 14.5 112.1 16.7 113.4 18 114.7 19.3 116.9 19.3 118 18 118.3 17.6 118.6 17.2 118.7 16.7L118.7 16.6 115.7 16.6 115.7 15 120.5 15 120.6 15.4 120.6 16.5C120.5 17.6 120.1 18.6 119.4 19.4 117.6 21.4 114.1 21.3 112.1 19.3" fill="#FFFFFF" fill-rule="evenodd" clip-rule="evenodd" clip-path="url(#SVGID_40_)"/></g><g><defs><rect x="68.5" y="0.5" width="31" height="30.8" id="SVGID_41_"/></defs><clipPath id="SVGID_42_"><use width="100%" height="100%" xlink:href="#SVGID_41_" overflow="visible"></use></clipPath><path d="M203.7 12.8 203.7 19C203.7 19.1 203.7 19.1 203.7 19.2 203.7 20 203.7 20.7 203.7 21.5 203.7 22.2 203.6 22.9 203.6 23.6 203.5 24.4 203.3 25.2 203 26 202.3 27.9 200.9 29.3 199.1 30.3 198 30.9 196.7 31.1 195.5 31.2 194.9 31.2 194.4 31.3 193.8 31.3 193.1 31.3 192.5 31.3 191.8 31.3 191.8 31.3 191.7 31.3 191.7 31.3L185.5 31.3C185.5 31.3 185.4 31.3 185.4 31.3 184.6 31.3 183.7 31.3 182.9 31.2 182.3 31.2 181.6 31.1 181 31.1 180.3 31 179.6 30.8 178.9 30.6 176.7 29.8 175.1 28.3 174.2 26.1 173.8 25.1 173.6 24 173.5 22.9 173.5 22.2 173.4 21.5 173.4 20.8 173.4 20.3 173.4 11.3 173.4 10.5 173.4 9.9 173.5 9.3 173.5 8.7 173.6 8 173.7 7.4 173.9 6.7 174.4 5.1 175.3 3.7 176.6 2.6 177.8 1.6 179.3 1.1 180.8 0.9 181.2 0.8 181.7 0.8 182.1 0.8 182.8 0.8 183.5 0.7 184.1 0.7 184.5 0.7 184.9 0.7 185.3 0.7 185.3 0.7 185.4 0.7 185.4 0.7L191.6 0.7C191.6 0.7 191.7 0.7 191.7 0.7 192.6 0.7 193.5 0.7 194.5 0.8 195.1 0.8 195.7 0.9 196.3 0.9 197 1 197.7 1.2 198.4 1.4 200.7 2.2 202.2 3.8 203.1 6 203.5 7 203.7 8 203.7 9.1 203.7 9.8 203.8 10.6 203.8 11.3 203.8 11.8 203.8 12.2 203.8 12.7 203.6 12.7 203.6 12.7 203.7 12.8M200.9 15.9C200.9 15.9 200.9 15.9 200.9 15.9 200.9 14.2 200.9 12.4 200.9 10.7 200.9 10.1 200.9 9.4 200.8 8.8 200.7 8.2 200.6 7.7 200.4 7.2 199.9 5.6 198.8 4.5 197.2 4 196.5 3.7 195.7 3.6 194.9 3.6 194.2 3.6 193.5 3.5 192.8 3.5 191.9 3.5 191.1 3.5 190.2 3.5 188.8 3.5 187.5 3.5 186.1 3.5 184.9 3.5 183.8 3.5 182.6 3.6 182.1 3.6 181.5 3.6 181 3.7 180.4 3.8 179.9 3.9 179.4 4.1 178 4.6 177 5.5 176.4 6.9 176.1 7.7 175.9 8.6 175.8 9.4 175.8 10 175.7 10.6 175.7 11.3 175.7 12.1 175.7 12.9 175.7 13.6 175.7 16.1 175.7 18.7 175.7 21.2 175.7 21.9 175.7 22.5 175.8 23.1 175.9 23.7 176 24.3 176.2 24.8 176.6 25.9 177.3 26.8 178.4 27.5 179.1 28 179.9 28.2 180.8 28.3 181.4 28.4 181.9 28.4 182.5 28.4 183.1 28.4 183.6 28.4 184.2 28.4 184.9 28.4 185.6 28.4 186.2 28.4 188.7 28.4 191.2 28.4 193.6 28.3 194.2 28.3 194.8 28.3 195.4 28.2 196 28.1 196.6 28 197.1 27.8 198.3 27.3 199.2 26.5 199.8 25.4 200.2 24.7 200.4 23.9 200.5 23 200.6 22.5 200.6 21.9 200.6 21.4 200.6 20.6 200.6 19.8 200.7 19.1 200.9 18.1 200.9 17 200.9 15.9" fill="#FFFFFF" fill-rule="evenodd" clip-rule="evenodd" clip-path="url(#SVGID_42_)"/><path d="M188.4 8.1C192.7 8.1 196.2 11.5 196.2 16 196.2 20.4 192.6 23.8 188.3 23.8 184.1 23.8 180.5 20.3 180.5 15.9 180.6 11.5 184.1 8.1 188.4 8.1M193.5 15.9C193.5 13 191.1 10.8 188.4 10.8 185.7 10.8 183.3 12.9 183.2 15.9 183.2 18.7 185.4 21 188.2 21 191.1 21 193.5 18.8 193.5 15.9" fill="#FFFFFF" fill-rule="evenodd" clip-rule="evenodd" clip-path="url(#SVGID_42_)"/><path d="M196.5 9.6C195.5 9.6 194.7 8.7 194.7 7.8 194.7 6.8 195.5 6 196.5 6 197.5 6 198.3 6.8 198.3 7.8 198.4 8.7 197.5 9.6 196.5 9.6" fill="#FFFFFF" fill-rule="evenodd" clip-rule="evenodd" clip-path="url(#SVGID_42_)"/><path d="M97 0.5 71 0.5C69.8 0.5 68.7 1.5 68.7 2.7L68.7 28.8C68.7 30 69.7 31 71 31L97 31C98.2 31 99.3 30 99.3 28.8L99.3 2.7C99.3 1.5 98.3 0.5 97 0.5" fill="#007BB6" clip-path="url(#SVGID_42_)"/><path d="M73.3 12 77.8 12 77.8 26.6 73.3 26.6 73.3 12ZM75.5 4.7C76.9 4.7 78.1 5.9 78.1 7.3 78.1 8.8 76.9 9.9 75.5 9.9 74 9.9 72.9 8.7 72.9 7.3 72.9 5.9 74.1 4.7 75.5 4.7" fill="#FFFFFF" clip-path="url(#SVGID_42_)"/><path d="M80.7 12 85 12 85 14 85.1 14C85.7 12.9 87.2 11.6 89.4 11.6 94 11.6 94.8 14.6 94.8 18.5L94.8 26.5 90.3 26.5 90.3 19.4C90.3 17.7 90.3 15.5 87.9 15.5 85.5 15.5 85.2 17.3 85.2 19.2L85.2 26.4 80.7 26.4 80.7 12Z" fill="#FFFFFF" clip-path="url(#SVGID_42_)"/></g><g><defs><rect x="68.5" y="0.5" width="31" height="30.8" id="SVGID_43_"/></defs><clipPath id="SVGID_44_"><use width="100%" height="100%" xlink:href="#SVGID_43_" overflow="visible"></use></clipPath><g clip-path="url(#SVGID_44_)"><defs><path d="M238.7 28.2C238.7 29.9 237.3 31.3 235.6 31.3L211 31.3C209.3 31.3 207.9 29.9 207.9 28.2L207.9 3.6C207.9 1.9 209.3 0.5 211 0.5L235.6 0.5C237.3 0.5 238.7 1.9 238.7 3.6L238.7 28.2Z" id="SVGID_45_"/></defs><clipPath id="SVGID_46_"><use width="100%" height="100%" xlink:href="#SVGID_45_" overflow="visible"></use></clipPath><g clip-path="url(#SVGID_46_)"><defs><rect x="208" y="0.5" width="30.8" height="30.8" id="SVGID_47_"/></defs><clipPath id="SVGID_48_"><use width="100%" height="100%" xlink:href="#SVGID_47_" overflow="visible"></use></clipPath><linearGradient x1="267.593" y1="205.35" x2="268.593" y2="205.35" gradientUnits="userSpaceOnUse" id="SVGID_49_" gradientTransform="matrix(0 30.7884 30.7884 0 -6099.03 -8238.23)"><stop offset="0" stop-color="#E32C28"/><stop offset="1" stop-color="#B52126"/></linearGradient><rect x="208" y="0.5" width="30.8" height="30.8" fill="url(#SVGID_49_)" clip-path="url(#SVGID_48_)"/></g></g></g><g><defs><rect x="68.5" y="0.5" width="31" height="30.8" id="SVGID_50_"/></defs><clipPath id="SVGID_51_"><use width="100%" height="100%" xlink:href="#SVGID_50_" overflow="visible"></use></clipPath><path d="M230.4 8.3 216.3 8.3C214.7 8.3 213.3 9.6 213.3 11.3L213.3 20.5C213.3 22.1 214.6 23.5 216.3 23.5L230.4 23.5C232 23.5 233.4 22.2 233.4 20.5L233.4 11.3C233.4 9.7 232 8.3 230.4 8.3M220.5 19.3 220.5 12.6 226.3 15.9 220.5 19.3Z" fill="#FFFFFF" clip-path="url(#SVGID_51_)"/><path d="M65.1 28.8C65.1 29.8 64.3 30.7 63.2 30.7L36.8 30.7C35.8 30.7 34.9 29.9 34.9 28.8L34.9 2.4C34.9 1.4 35.7 0.5 36.8 0.5L63.2 0.5C64.2 0.5 65.1 1.3 65.1 2.4L65.1 28.8Z" fill="#24BEEF" clip-path="url(#SVGID_51_)"/><path d="M62.7 8.2C62.1 9.1 61.5 9.8 60.6 10.4 60.4 10.6 60.3 10.7 60.3 11 60.2 15.7 58.5 19.6 54.8 22.6 52.9 24.1 50.7 25 48.3 25.3 45.2 25.7 42.2 25.1 39.5 23.6 39.3 23.5 39.2 23.4 38.9 23.2 41.6 23.5 43.9 22.8 46.1 21.2 45 21.1 44.1 20.8 43.3 20.1 42.5 19.5 41.9 18.7 41.6 17.7L43.6 17.7C41.3 16.8 40.1 15.2 39.9 12.8 40.6 13 41.2 13.2 41.9 13.4 41.9 13.4 41.9 13.3 42 13.3 40.8 12.3 40.1 11.1 40 9.5 39.9 8.5 40.2 7.6 40.7 6.8 43.4 9.9 46.7 11.6 50.7 11.9 50.7 11.3 50.6 10.6 50.7 10.1 51 8.1 52.1 6.8 53.9 6.1 55.7 5.5 57.4 5.8 58.8 7.2 59 7.4 59.1 7.4 59.4 7.4 60.3 7.1 61.2 6.8 62.1 6.4 61.8 7.4 61.1 8.3 60.2 8.9 60.2 8.9 60.2 9 60.2 9 61 8.6 61.8 8.4 62.7 8.2" fill="#FFFFFF" fill-rule="evenodd" clip-rule="evenodd" clip-path="url(#SVGID_51_)"/><path d="M168.8 28.8C168.8 29.8 168 30.7 166.9 30.7L140.5 30.7C139.5 30.7 138.6 29.9 138.6 28.8L138.6 2.4C138.6 1.4 139.4 0.5 140.5 0.5L166.9 0.5C167.9 0.5 168.8 1.3 168.8 2.4L168.8 28.8Z" fill="#3C5A99" clip-path="url(#SVGID_51_)"/><path d="M159.3 30.7 159.3 19.4 163.1 19.4 164 14.7 159.3 14.7 159.3 12.8C159.3 10.9 160.2 10 162.1 10L164 10 164 5.2 160.2 5.2C156.7 5.2 154.5 7.9 154.5 11.8L154.5 14.6 150.7 14.6 150.7 19.3 154.5 19.3 154.5 30.6 159.3 30.6Z" fill="#FFFFFF" clip-path="url(#SVGID_51_)"/><path d="M103.9 29.4 103.9 1.9C103.9 1.2 104.5 0.6 105.2 0.6L132.7 0.6C133.4 0.6 134 1.2 134 1.9L134 29.4C134 30.1 133.4 30.7 132.7 30.7L105.2 30.7C104.4 30.7 103.9 30.1 103.9 29.4" fill="#DC4F42" fill-rule="evenodd" clip-rule="evenodd" clip-path="url(#SVGID_51_)"/><path d="M125.6 13.4 125.6 14.9 127.1 14.9 127.1 16.4 125.6 16.4 125.6 17.9 124.1 17.9 124.1 16.4 122.6 16.4 122.6 14.9 124.1 14.9 124.1 13.4Z" fill="#FFFFFF" fill-rule="evenodd" clip-rule="evenodd" clip-path="url(#SVGID_51_)"/><path d="M112.1 19.3C110.1 17.3 110.1 13.9 112.1 11.9 113.6 10.4 115.8 10.1 117.6 10.8L118.4 11.2 119.2 11.7 117.8 13 117.3 12.7C116.1 12 114.5 12.1 113.4 13.2 112.1 14.5 112.1 16.7 113.4 18 114.7 19.3 116.9 19.3 118 18 118.3 17.6 118.6 17.2 118.7 16.7L118.7 16.6 115.7 16.6 115.7 15 120.5 15 120.6 15.4 120.6 16.5C120.5 17.6 120.1 18.6 119.4 19.4 117.6 21.4 114.1 21.3 112.1 19.3" fill="#FFFFFF" fill-rule="evenodd" clip-rule="evenodd" clip-path="url(#SVGID_51_)"/></g></g></svg>